<svg width="107" height="108" viewBox="0 0 107 108" fill="none" xmlns="http://www.w3.org/2000/svg">
<path d="M53.5029 0.00705679C62.904 0.00705679 72.3028 0.00477775 81.7038 0.00705679C84.3863 0.00705679 85.2113 0.854862 85.1953 3.56693C85.1908 4.40106 85.2386 5.23747 85.1771 6.06704C85.1042 7.01512 85.4802 7.3114 86.4146 7.30228C90.583 7.26126 94.7536 7.27721 98.922 7.27721C103.947 7.27721 107.206 10.4155 106.99 15.459C106.222 33.3791 97.8303 46.495 81.8269 54.6449C79.7233 55.716 77.8477 56.867 76.1817 58.6332C71.0311 64.0893 64.5791 67.1637 57.1311 68.0913C56.2947 68.1961 56.0532 68.4855 56.0623 69.29C56.0965 72.4739 56.101 75.6577 56.0554 78.8415C56.0418 79.7668 56.3221 80.1064 57.2793 80.0927C60.8802 80.0448 64.4811 80.0449 68.082 80.0745C71.6418 80.1041 74.559 82.5267 75.3134 86.0068C75.6119 87.3834 75.4137 87.6614 74.0371 87.6614C60.3537 87.666 46.6703 87.666 32.9869 87.6614C31.6081 87.6614 31.4076 87.3857 31.7016 86.0137C32.4468 82.5427 35.3663 80.1223 38.9353 80.0859C42.5361 80.0494 46.137 80.0517 49.7379 80.0836C50.5812 80.0904 50.9732 79.9035 50.9595 78.9555C50.9139 75.7352 50.923 72.5126 50.9618 69.29C50.9709 68.481 50.7134 68.1893 49.8929 68.0776C41.4399 66.9495 34.4888 63.0796 29.0579 56.5C28.7001 56.0647 28.2579 55.8391 27.7657 55.6272C13.6447 49.5558 4.65842 39.1086 1.04385 24.1353C0.323671 21.1498 -0.00451128 18.0936 4.68107e-05 15.0123C0.00688395 10.5545 3.20211 7.30912 7.64169 7.29089C11.924 7.27265 16.2086 7.25442 20.4909 7.30456C21.5279 7.31596 21.9359 7.02196 21.847 5.95764C21.7649 4.97765 21.8151 3.98855 21.8265 3.00172C21.8493 0.993883 22.827 0.00477775 24.8462 0.0024987C33.7915 -0.00433843 42.7367 0.00477775 51.682 0.00705679C52.2882 0.00705679 52.8967 0.00705679 53.5029 0.00705679ZM43.2495 24.484C43.2495 24.4863 43.2495 24.4863 43.2495 24.4886C41.8866 24.4886 40.5215 24.4726 39.1586 24.4931C37.7843 24.5136 36.8636 25.1085 36.5605 26.1181C36.23 27.2189 36.6015 28.0986 37.7342 28.9304C39.7808 30.43 41.7795 32.0003 43.8853 33.4133C44.9155 34.1039 45.0271 34.7625 44.6306 35.8633C43.7691 38.2472 43.0421 40.6812 42.2672 43.0947C41.8228 44.4803 42.0712 45.5036 42.992 46.1441C43.9309 46.7981 44.7924 46.7184 46.0208 45.8501C48.1859 44.3185 50.3692 42.8144 52.4979 41.2327C53.2203 40.6949 53.7285 40.6333 54.4806 41.1962C56.6047 42.7825 58.7971 44.2775 60.9622 45.8068C62.2089 46.6865 63.1797 46.7776 64.0936 46.103C64.9506 45.4695 65.1762 44.5123 64.7409 43.1334C63.9409 40.606 63.157 38.074 62.2841 35.5716C61.9787 34.6941 62.1542 34.2132 62.9085 33.6891C65.1762 32.1097 67.4028 30.4665 69.618 28.8119C70.8305 27.9071 71.104 26.5784 70.361 25.5483C69.773 24.7347 68.9161 24.4931 67.9657 24.4908C65.2765 24.4863 62.5849 24.4521 59.8979 24.5114C58.9635 24.5319 58.551 24.1786 58.2935 23.3194C57.5437 20.817 56.7255 18.3351 55.9301 15.8464C55.4629 14.381 54.7655 13.7702 53.585 13.7748C52.3771 13.7793 51.7207 14.3309 51.2239 15.8259C50.3875 18.3397 49.5442 20.8535 48.7602 23.3855C48.5072 24.2037 48.1016 24.5501 47.2241 24.5068C45.9046 24.4361 44.5759 24.484 43.2495 24.484ZM82.9915 48.0562C83.7504 47.5616 84.2381 47.2745 84.6939 46.9394C85.8221 46.1076 86.9866 45.3168 88.0418 44.4006C96.9119 36.7065 101.527 26.9727 101.885 15.2379C101.946 13.2346 101.078 12.4165 99.0519 12.4119C94.9223 12.4005 90.7904 12.4073 86.6607 12.4096C85.1908 12.4096 85.1885 12.4142 85.1885 13.9457C85.1862 21.3344 85.1816 28.723 85.193 36.114C85.1953 37.8985 85.0358 39.6647 84.7828 41.4287C84.4706 43.6075 83.8119 45.6928 82.9915 48.0562ZM23.9391 47.7599C21.7421 42.4406 21.7763 36.8774 21.8219 31.3006C21.8698 25.4298 21.8128 19.559 21.8515 13.6882C21.8584 12.6922 21.553 12.38 20.5548 12.3914C16.3887 12.4392 12.2226 12.4051 8.05419 12.4142C5.89366 12.4187 5.07548 13.2073 5.13246 15.3792C5.34441 23.4402 7.77843 30.7696 12.4733 37.3355C15.5317 41.6087 19.3537 45.0592 23.9391 47.7599Z" fill="white"/>
<path d="M53.519 107.04C43.2108 107.04 32.9027 107.04 22.5946 107.04C20.3999 107.04 19.2649 105.93 19.3971 103.856C19.6478 99.8767 21.0084 96.3351 23.5997 93.2743C24.2629 92.4903 24.9899 92.1462 26.0428 92.1484C44.3481 92.1758 62.6534 92.1758 80.9587 92.1484C82.0025 92.1462 82.7477 92.463 83.4132 93.2538C86.0159 96.3533 87.438 99.9086 87.6294 103.943C87.7229 105.93 86.6244 107.026 84.5596 107.028C74.2127 107.04 63.8681 107.035 53.5212 107.035C53.519 107.035 53.519 107.037 53.519 107.04Z" fill="white"/>
</svg>
