<svg width="12" height="15" viewBox="0 0 12 15" fill="none" xmlns="http://www.w3.org/2000/svg">
<path d="M6.00047 14.0838C6.81892 14.0838 7.52372 13.5894 7.83297 12.8838H4.16797C4.47722 13.5894 5.18205 14.0838 6.00047 14.0838Z" fill="#02718B"/>
<path d="M10.1333 7.0403V6.16398C10.1333 4.30207 8.89571 2.72396 7.20001 2.20853V1.63066C7.20001 0.968982 6.66169 0.430664 6.00001 0.430664C5.33834 0.430664 4.80002 0.968982 4.80002 1.63066V2.20853C3.10429 2.72396 1.86669 4.30204 1.86669 6.16398V7.0403C1.86669 8.67581 1.24328 10.2266 0.111311 11.4071C0.000377832 11.5228 -0.0307954 11.6935 0.0320844 11.8409C0.0949642 11.9883 0.239764 12.084 0.40003 12.084H11.6C11.7603 12.084 11.905 11.9883 11.9679 11.8409C12.0308 11.6935 11.9996 11.5228 11.8887 11.4071C10.7567 10.2266 10.1333 8.67579 10.1333 7.0403ZM6.40001 2.05007C6.26836 2.03738 6.13495 2.03066 6.00001 2.03066C5.86508 2.03066 5.73167 2.03738 5.60001 2.05007V1.63066C5.60001 1.4101 5.77945 1.23066 6.00001 1.23066C6.22057 1.23066 6.40001 1.4101 6.40001 1.63066V2.05007Z" fill="#02718B"/>
</svg>
