<svg width="96" height="96" viewBox="0 0 96 96" fill="none" xmlns="http://www.w3.org/2000/svg">
<path d="M96 70V73C96 73.8 95.68 74.56 95.12 75.12L75.12 95.12C74.56 95.68 73.8 96 73 96H70V73C70 71.36 71.36 70 73 70H96Z" fill="white"/>
<path d="M85 20H55V29C55 32.86 51.86 36 48 36C44.14 36 41 32.86 41 29V20H11C4.92 20 0 24.92 0 31V85C0 91.08 4.92 96 11 96H66V73C66 69.14 69.14 66 73 66H96V31C96 24.92 91.08 20 85 20ZM56 78H19C17.344 78 16 76.656 16 75C16 73.344 17.344 72 19 72H56C57.656 72 59 73.344 59 75C59 76.656 57.656 78 56 78ZM77 62H19C17.344 62 16 60.656 16 59C16 57.344 17.344 56 19 56H77C78.656 56 80 57.344 80 59C80 60.656 78.656 62 77 62ZM77 46H19C17.344 46 16 44.656 16 43C16 41.344 17.344 40 19 40H77C78.656 40 80 41.344 80 43C80 44.656 78.656 46 77 46Z" fill="white"/>
<path d="M48 32C46.344 32 45 30.656 45 29V14C45 12.344 46.344 11 48 11C49.656 11 51 12.344 51 14V29C51 30.656 49.656 32 48 32Z" fill="white"/>
<path d="M48 16C43.588 16 40 12.412 40 8C40 3.588 43.588 0 48 0C52.412 0 56 3.588 56 8C56 12.412 52.412 16 48 16Z" fill="white"/>
</svg>
