<svg width="19" height="18" viewBox="0 0 19 18" fill="none" xmlns="http://www.w3.org/2000/svg">
<path d="M2.90736 1.92194C5.45784 -0.635614 9.59873 -0.641383 12.1563 1.90911C14.6241 4.37004 14.7285 8.33379 12.3937 10.9213L12.8932 11.4207C13.2967 11.0171 13.951 11.0171 14.3545 11.4206L17.7647 14.8307C18.1682 15.2342 18.1683 15.8885 17.7648 16.2921L17.2776 16.7792C16.8741 17.1826 16.22 17.1826 15.8165 16.7792L12.4065 13.3692C12.0029 12.9657 12.0028 12.3114 12.4063 11.9079L11.907 11.4083C9.22724 13.8301 5.09166 13.6209 2.6699 10.9411C0.330688 8.35265 0.435184 4.38373 2.90736 1.92194ZM12.8932 12.8818L16.3032 16.2919C16.4377 16.4263 16.6557 16.4263 16.7902 16.2919L17.2773 15.8045C17.4115 15.67 17.4115 15.4522 17.2773 15.3178L13.8673 11.9078C13.731 11.7775 13.5164 11.7775 13.3802 11.9078L12.8932 12.3951C12.7589 12.5296 12.7589 12.7474 12.8932 12.8818Z" fill="#053F72"/>
<path d="M4.33229 2.89551L4.81934 3.38255C3.07364 5.13251 3.07364 7.96523 4.81934 9.71518L4.33229 10.2022C2.31746 8.18335 2.31746 4.91439 4.33229 2.89551Z" fill="white"/>
</svg>
