<svg width="77" height="140" viewBox="0 0 77 140" fill="none" xmlns="http://www.w3.org/2000/svg">
<path d="M0.00200723 100.557C-0.164443 79.2088 17.7113 62.1855 38.3411 62.2208C59.4501 62.2561 76.8165 79.6577 76.7433 100.807C76.6702 121.623 59.3972 139.146 38.099 139.005C17.1742 138.869 -0.214883 121.623 0.00200723 100.557ZM8.23627 100.648C8.55656 117.412 21.4565 130.584 38.1924 130.665C55.1577 130.748 68.4864 117.371 68.3981 100.456C68.3124 83.7156 55.1426 70.6063 38.3815 70.5635C21.6002 70.5231 8.47334 83.8442 8.23627 100.648Z" fill="white"/>
<path d="M8.05642 52.5543C8.05642 46.8924 8.08164 -4.32889 8.03372 -9.99073C8.02363 -11.1332 8.3641 -11.5241 9.52926 -11.4989C12.6742 -11.4308 15.8216 -11.4409 18.9665 -11.4938C20.0131 -11.5115 20.3359 -11.1458 20.3309 -10.1168C20.3006 -1.47653 20.3032 52.7207 20.3284 61.3635C20.3309 62.2286 20.061 62.743 19.2717 63.134C15.4862 65.0103 12.0916 67.4491 9.05765 70.3922C8.83319 70.6116 8.62134 71.0328 8.25061 70.8462C7.91519 70.6747 8.05894 70.2409 8.05894 69.9206C8.05642 64.1301 8.05642 58.3422 8.05642 52.5543Z" fill="white"/>
<path d="M68.6533 52.683C68.6533 58.3826 68.6558 64.0798 68.6482 69.7794C68.6482 70.1451 68.8121 70.6621 68.4692 70.8361C68.0051 71.0707 67.7605 70.5209 67.4805 70.2485C64.545 67.3886 61.2412 65.0457 57.5843 63.2122C56.7369 62.786 56.3485 62.2992 56.3536 61.2955C56.3939 52.7889 56.3737 1.23544 56.3813 -7.2712C56.3813 -8.95336 56.3964 -8.96849 58.0181 -8.97102C61.0772 -8.97858 64.1364 -8.92058 67.193 -8.99371C68.3935 -9.02398 68.6684 -8.56498 68.6608 -7.46035C68.618 -1.7632 68.6407 46.9858 68.6407 52.6855C68.6482 52.683 68.6507 52.683 68.6533 52.683Z" fill="white"/>
<path d="M24.1672 47.4496C24.1672 43.4674 24.2 -6.56918 24.147 -10.5514C24.1319 -11.6384 24.4522 -12.0217 25.5719 -11.999C28.7546 -11.936 31.9424 -11.9511 35.1252 -11.994C36.0911 -12.0066 36.4543 -11.709 36.4492 -10.7052C36.4189 -3.37131 36.424 50.0195 36.4442 57.3535C36.4467 58.2387 36.1693 58.6271 35.2361 58.68C31.9197 58.8692 28.6689 59.4896 25.5215 60.5438C24.4118 60.9145 24.1394 60.6295 24.1495 59.5249C24.1924 55.4973 24.1672 51.4722 24.1672 47.4496Z" fill="white"/>
<path d="M52.5345 47.6013C52.5345 51.5809 52.5068 55.5606 52.5522 59.5403C52.5648 60.6903 52.2369 60.8769 51.1625 60.5264C48.0101 59.4924 44.7643 58.8644 41.4479 58.6626C40.6106 58.6122 40.2651 58.3121 40.2676 57.447C40.2878 50.0324 40.2852 -2.94931 40.2701 -10.3665C40.2676 -11.1533 40.5299 -11.4988 41.3571 -11.4938C44.7088 -11.4686 48.0605 -11.4559 51.4122 -11.4988C52.4488 -11.5114 52.5471 -10.9692 52.5421 -10.1571C52.5244 -6.09422 52.5345 43.5358 52.5345 47.6013Z" fill="white"/>
<path d="M27.0174 115.417C27.5653 112.214 28.0382 109.023 28.6895 105.87C28.9838 104.448 28.5674 103.471 27.5935 102.532C25.3452 100.365 23.1282 98.1634 20.9113 95.9652C20.6326 95.6865 20.1347 95.4517 20.2756 94.9789C20.4259 94.4685 20.9801 94.6438 21.359 94.5843C24.4904 94.0958 27.6217 93.5917 30.7656 93.1721C32.1027 92.9936 32.9293 92.311 33.4898 91.1398C34.7267 88.5596 35.9824 85.9857 37.2694 83.4305C37.5575 82.8606 37.642 81.8805 38.3841 81.918C39.0793 81.9525 39.1701 82.9169 39.4644 83.4994C40.7232 86.0107 41.9632 88.5346 43.1688 91.0709C43.7544 92.3078 44.6186 92.9748 46.0215 93.1564C49.2154 93.5698 52.3906 94.1365 55.5814 94.5906C56.7306 94.7534 56.6367 95.148 55.9541 95.8181C53.6463 98.0758 51.3604 100.352 49.0432 102.597C48.1132 103.499 47.7186 104.445 47.9973 105.804C48.6236 108.857 49.0902 111.944 49.61 115.023C49.6789 115.423 49.8667 115.921 49.4972 116.203C49.0996 116.507 48.7238 116.087 48.3731 115.906C45.7396 114.54 43.0874 113.206 40.4978 111.763C39.0323 110.946 37.7234 110.914 36.2423 111.747C33.6589 113.2 31.0036 114.531 28.367 115.89C27.7908 116.191 27.0612 116.673 27.0174 115.417Z" fill="white"/>
</svg>
