<svg width="14" height="14" viewBox="0 0 14 14" fill="none" xmlns="http://www.w3.org/2000/svg">
<path fill-rule="evenodd" clip-rule="evenodd" d="M7.4842 0.373047C5.71608 0.373047 5.49116 0.379294 4.79766 0.410533C4.10416 0.441772 3.62933 0.554232 3.21697 0.716674C2.78588 0.885363 2.4235 1.10404 2.06113 1.46641C1.69876 1.82878 1.47384 2.19115 1.3114 2.62224C1.14896 3.0346 1.04275 3.50943 1.00526 4.20293C0.97402 4.89643 0.967773 5.12135 0.967773 6.88947C0.967773 8.65759 0.97402 8.88251 1.00526 9.57601C1.0365 10.2695 1.14896 10.7443 1.3114 11.1567C1.48009 11.5878 1.69876 11.9502 2.06113 12.3125C2.4235 12.6749 2.78588 12.8998 3.21697 13.0623C3.62933 13.2247 4.10416 13.3309 4.79766 13.3684C5.49116 13.3996 5.71608 13.4059 7.4842 13.4059C9.25232 13.4059 9.47723 13.3996 10.1707 13.3684C10.8642 13.3372 11.3391 13.2247 11.7514 13.0623C12.1825 12.8936 12.5449 12.6749 12.9073 12.3125C13.2696 11.9502 13.4945 11.5878 13.657 11.1567C13.8194 10.7443 13.9256 10.2695 13.9631 9.57601C13.9944 8.88251 14.0006 8.65759 14.0006 6.88947C14.0006 5.12135 13.9944 4.89643 13.9631 4.20293C13.9319 3.50943 13.8194 3.0346 13.657 2.62224C13.4883 2.19115 13.2696 1.82878 12.9073 1.46641C12.5449 1.10404 12.1825 0.879116 11.7514 0.716674C11.3391 0.554232 10.8642 0.44802 10.1707 0.410533C9.47723 0.379294 9.25857 0.373047 7.4842 0.373047ZM7.49041 3.54069C5.64107 3.54069 4.1416 5.04015 4.1416 6.88949C4.1416 8.73883 5.64107 10.2383 7.49041 10.2383C9.33975 10.2383 10.8392 8.73883 10.8392 6.88949C10.8392 5.04015 9.33975 3.54069 7.49041 3.54069ZM7.49041 9.06372C6.29083 9.06372 5.31618 8.08906 5.31618 6.88949C5.31618 5.68992 6.29083 4.71527 7.49041 4.71527C8.68998 4.71527 9.66463 5.68992 9.66463 6.88949C9.66463 8.08906 8.68998 9.06372 7.49041 9.06372ZM10.9763 4.19044C11.4074 4.19044 11.7573 3.84057 11.7573 3.40947C11.7573 2.97838 11.4074 2.6285 10.9763 2.6285C10.5452 2.6285 10.1953 2.97838 10.1953 3.40947C10.1953 3.84057 10.5452 4.19044 10.9763 4.19044Z" fill="#02718B"/>
</svg>
