<svg width="14" height="12" viewBox="0 0 14 12" fill="none" xmlns="http://www.w3.org/2000/svg">
<path d="M0.955078 9.8692C2.10467 10.6064 3.47293 11.0375 4.94115 11.0375C9.76443 11.0375 12.4947 6.96399 12.3323 3.3028C12.8383 2.93418 13.2819 2.47809 13.6318 1.95953C13.1632 2.1657 12.6634 2.30315 12.1386 2.36563C12.6759 2.04699 13.0882 1.53468 13.2819 0.928644C12.7821 1.22854 12.2261 1.44096 11.6325 1.55967C11.1577 1.0536 10.4829 0.741211 9.73319 0.741211C8.05254 0.741211 6.82173 2.3094 7.20285 3.93382C5.04112 3.82761 3.1293 2.79048 1.84226 1.21604C1.16125 2.38437 1.48614 3.91508 2.64822 4.6898C2.22338 4.67731 1.82352 4.5586 1.4674 4.36492C1.4424 5.57074 2.3046 6.69533 3.55415 6.94525C3.18553 7.04521 2.78567 7.0702 2.37957 6.98898C2.7107 8.01986 3.67286 8.77584 4.80995 8.79459C3.71034 9.65053 2.33584 10.0316 0.955078 9.8692Z" fill="#02718B"/>
</svg>
